<?xml version="1.0" standalone="no"?>
<!DOCTYPE svg PUBLIC "-//W3C//DTD SVG 20010904//EN"
 "http://www.w3.org/TR/2001/REC-SVG-20010904/DTD/svg10.dtd">
<svg version="1.0" xmlns="http://www.w3.org/2000/svg"
 width="225.000000pt" height="225.000000pt" viewBox="0 0 225.000000 225.000000"
 preserveAspectRatio="xMidYMid meet">

<g transform="translate(0.000000,225.000000) scale(0.100000,-0.100000)"
fill="#000000" stroke="none">
<path d="M937 2205 c-425 -80 -750 -386 -865 -813 -23 -87 -26 -115 -26 -272
0 -158 3 -185 27 -275 114 -424 453 -736 881 -810 279 -48 588 26 815 195 440
326 576 915 325 1402 -144 277 -396 477 -704 558 -112 29 -339 36 -453 15z
m440 -100 c249 -63 464 -222 608 -449 142 -224 187 -539 114 -806 -26 -96 -96
-245 -153 -324 -63 -89 -199 -215 -296 -274 -94 -58 -217 -109 -285 -119 l-45
-6 0 184 c0 162 -3 189 -20 228 -11 24 -18 46 -16 48 2 2 32 11 67 19 88 21
172 69 229 131 65 71 90 148 90 277 0 148 -22 238 -73 293 -19 21 -20 27 -7
91 16 89 0 182 -32 182 -36 0 -85 -30 -137 -85 -51 -53 -51 -53 -80 -39 -89
44 -353 43 -442 -2 -24 -12 -27 -10 -67 36 -42 48 -139 107 -154 92 -19 -19
-30 -126 -18 -184 11 -56 10 -58 -19 -98 -40 -55 -62 -158 -62 -284 1 -148 35
-238 120 -312 41 -36 131 -80 191 -94 30 -7 61 -14 68 -16 10 -3 9 -10 -3 -35
-9 -17 -19 -49 -23 -72 -10 -54 -37 -70 -114 -63 -77 6 -131 38 -187 110 -56
72 -86 95 -133 102 -68 11 -73 0 -20 -53 26 -26 62 -77 81 -112 73 -138 144
-185 281 -186 l85 -1 3 -72 c3 -87 -2 -91 -85 -67 -225 65 -437 230 -570 443
-57 91 -94 181 -123 302 -32 130 -33 335 -2 460 102 418 434 721 854 780 99
14 264 3 375 -25z"/>
</g>
</svg>
